:SAMPLES-PER-SECOND 30
:FRAME-RANGE 1-2045
:FULLY-SPECIFIED
:DEGREES
640
root  -1.07166 37.8792 -47.041 9.1293 -14.0419 -3.39386
RightUpLeg  -24.5747 -6.61375 -6.52366
RightLeg  31.3566 -3.5472 -2.57283
RightFoot  -11.0152 -0.117341 14.7281
RightToes  -5.28216e-011 1.2921e-014 -6.02303e-014
Spine  11.9954 -0.40594 8.5046
Spine1  2.51633 0.288241 -0.181758
HEad  -1.03457 23.7201 -14.7184
LeftShoulder1  1.93608 -4.64137 -18.019
LeftArm  4.64984 -6.18969 -63.455
LeftForeArm  19.9112 -9.49624 -11.2723
LeftHand  -0.0804674 3.23367 3.53169
RightShoulder  1.74382 2.88091 21.9551
RightArm  -20.9665 13.1186 54.3997
RightForeArm  58.1143 -0.835041 5.64448
RightHand  0.378984 -7.83523 -18.6579
LeftUpLeg  -35.9148 1.01301 8.44799
LeftLeg  49.8933 0.75006 1.4073
LeftFoot  -13.9407 -0.0366915 -5.29466
LeftToes  9.43379e-011 5.24309e-011 -4.66411e-011
641
root  -1.29998 38.2285 -46.445 9.8572 -11.0924 -2.754
RightUpLeg  -22.2365 -8.10644 -6.82825
RightLeg  28.4351 -5.01001 -3.16707
RightFoot  -10.896 -0.13366 15.1605
RightToes  -5.28216e-011 1.2921e-014 -6.02303e-014
Spine  11.4029 -0.083345 7.78843
Spine1  2.41916 0.526308 -0.568552
HEad  -1.19851 20.9654 -13.3062
LeftShoulder1  1.92687 -4.60599 -18.0108
LeftArm  3.16969 -6.28726 -62.2168
LeftForeArm  21.812 -7.92586 -11.7058
LeftHand  -0.0741786 3.35449 3.33955
RightShoulder  1.78643 3.05233 21.8643
RightArm  -21.3408 14.2013 54.9705
RightForeArm  56.893 -0.813539 5.3579
RightHand  0.384592 -7.84209 -18.8535
LeftUpLeg  -36.6548 3.40454 7.6908
LeftLeg  39.7705 6.60218 6.23658
LeftFoot  -11.7926 0.0475473 -5.8544
LeftToes  9.43379e-011 5.24309e-011 -4.66411e-011
642
root  -1.42291 38.4156 -45.8029 10.5084 -8.36372 -2.58981
RightUpLeg  -20.1763 -9.79057 -6.77709
RightLeg  26.4115 -6.08348 -3.50412
RightFoot  -11.1907 -0.0971255 15.6447
RightToes  -5.28216e-011 1.2921e-014 -6.02303e-014
Spine  10.6063 0.121737 7.39818
Spine1  2.7547 0.723421 -1.04824
HEad  -1.21884 18.5329 -11.9085
LeftShoulder1  1.94675 -4.71268 -17.9286
LeftArm  0.404602 -6.68541 -61.2529
LeftForeArm  24.0274 -5.65125 -11.9821
LeftHand  -0.0716216 3.48443 3.37334
RightShoulder  1.81118 3.17405 21.7119
RightArm  -21.8694 15.1228 55.6796
RightForeArm  56.9338 -1.40646 4.86925
RightHand  0.337599 -7.51756 -19.1273
LeftUpLeg  -37.4433 6.06841 6.45477
LeftLeg  32.7921 13.8198 9.75347
LeftFoot  -8.40924 0.198034 -5.76646
LeftToes  9.43379e-011 5.24309e-011 -4.66411e-011
643
root  -1.44625 38.4253 -45.1079 10.8737 -6.0214 -2.87421
RightUpLeg  -18.4064 -10.8651 -6.54251
RightLeg  25.7025 -7.04024 -3.90168
RightFoot  -11.9459 0.00600143 16.5036
RightToes  -5.28216e-011 1.2921e-014 -6.02303e-014
Spine  9.97577 0.25498 6.97747
Spine1  2.97146 0.821076 -1.19727
HEad  -0.880601 16.6116 -10.3599
LeftShoulder1  1.98642 -4.89531 -17.8674
LeftArm  -1.63491 -6.82464 -60.3486
LeftForeArm  25.1372 -3.52156 -12.0318
LeftHand  -0.0666505 3.7233 3.43034
RightShoulder  1.87626 3.44656 21.5436
RightArm  -21.8581 15.6678 56.2931
RightForeArm  57.284 -2.22668 4.66852
RightHand  0.357021 -7.65362 -18.9904
LeftUpLeg  -38.3226 9.46148 4.82855
LeftLeg  29.2267 15.0898 9.28894
LeftFoot  -6.15085 0.265335 -5.03863
LeftToes  9.43379e-011 5.24309e-011 -4.66411e-011
644
root  -1.34936 38.2856 -44.3561 10.8538 -4.39538 -3.37576
RightUpLeg  -16.8803 -11.5246 -6.41329
RightLeg  26.2133 -7.61033 -4.28325
RightFoot  -13.1512 0.186067 17.346
RightToes  -5.28216e-011 1.2921e-014 -6.02303e-014
Spine  9.46618 0.444687 6.58286
Spine1  3.21929 1.01809 -1.38066
HEad  -0.088217 15.3132 -8.85919
LeftShoulder1  1.99582 -4.92089 -17.9096
LeftArm  -3.08879 -6.94861 -59.6148
LeftForeArm  25.7919 -1.32231 -11.8828
LeftHand  -0.0641317 3.81981 3.4185
RightShoulder  1.97452 3.78035 21.6352
RightArm  -21.6561 16.1451 56.611
RightForeArm  58.3555 -3.55902 4.50686
RightHand  0.350772 -7.61871 -18.9639
LeftUpLeg  -38.4866 12.4401 3.3822
LeftLeg  28.0223 12.6318 7.52768
LeftFoot  -5.63248 0.342955 -6.1979
LeftToes  9.43379e-011 5.24309e-011 -4.66411e-011
645
root  -1.15055 38.1688 -43.5264 10.2875 -3.20934 -3.52908
RightUpLeg  -14.7752 -11.8278 -7.04983
RightLeg  26.7526 -7.82561 -4.49088
RightFoot  -14.0372 0.349362 18.7693
RightToes  -5.28216e-011 1.2921e-014 -6.02303e-014
Spine  9.14018 0.489027 5.33577
Spine1  3.67552 1.12331 -1.67552
HEad  1.20631 14.6495 -7.2456
LeftShoulder1  1.95147 -4.73551 -17.9175
LeftArm  -3.76301 -6.53902 -59.0926
LeftForeArm  25.6876 0.417746 -11.7307
LeftHand  -0.0603484 3.96412 3.39616
RightShoulder  2.04679 3.93407 22.0736
RightArm  -21.4938 16.4416 56.7739
RightForeArm  60.0796 -4.87131 4.33758
RightHand  0.364216 -7.69705 -18.9957
LeftUpLeg  -37.5454 13.2749 2.79047
LeftLeg  28.1768 10.3921 6.32112
LeftFoot  -1.97513 0.275919 -3.22353
LeftToes  9.43379e-011 5.24309e-011 -4.66411e-011
646
root  -0.75592 37.9879 -42.6582 9.65688 -2.02775 -3.96606
RightUpLeg  -13.5315 -11.4005 -7.83339
RightLeg  29.2433 -7.90189 -4.99227
RightFoot  -14.2734 0.457035 21.4413
RightToes  -5.28216e-011 1.2921e-014 -6.02303e-014
Spine  8.91413 0.39808 4.96313
Spine1  4.01626 0.972369 -1.6937
HEad  1.73413 14.2727 -6.00498
LeftShoulder1  1.93068 -4.56678 -18.1944
LeftArm  -4.24565 -6.10589 -58.4714
LeftForeArm  25.1307 1.90165 -11.6383
LeftHand  -0.0566551 4.28455 3.8696
RightShoulder  2.07006 3.84201 22.8068
RightArm  -21.4344 16.5994 56.7435
RightForeArm  60.9645 -5.64349 4.23338
RightHand  0.384785 -7.80344 -19.1372
LeftUpLeg  -37.5965 12.2694 2.9758
LeftLeg  31.7095 9.75957 6.79435
LeftFoot  -3.06253 0.108847 -1.2494
LeftToes  9.43379e-011 5.24309e-011 -4.66411e-011
647
root  -0.296486 37.8988 -41.7854 9.15102 -0.302342 -3.85693
RightUpLeg  -12.8721 -11.6743 -9.30869
RightLeg  32.638 -7.32696 -5.27076
RightFoot  -13.3106 0.336505 24.5365
RightToes  -5.28216e-011 1.2921e-014 -6.02303e-014
Spine  8.40358 0.250399 4.02881
Spine1  4.58885 0.683745 -1.50647
HEad  2.00462 13.5728 -5.15648
LeftShoulder1  2.02003 -4.81889 -18.5614
LeftArm  -4.74365 -6.07292 -58.1785
LeftForeArm  24.6585 3.89158 -11.5362
LeftHand  -0.0508614 4.49076 3.87925
RightShoulder  2.09479 3.82652 23.2419
RightArm  -22.3542 15.9411 56.5381
RightForeArm  61.3586 -5.66769 3.78394
RightHand  0.389993 -7.80746 -19.3368
LeftUpLeg  -36.8871 9.72105 2.7634
LeftLeg  33.9557 10.1417 7.62604
LeftFoot  -5.04391 0.0668226 -0.663045
LeftToes  9.43379e-011 5.24309e-011 -4.66411e-011
648
root  0.163988 37.907 -40.9972 8.7899 0.415204 -3.78412
RightUpLeg  -13.7585 -9.80317 -10.5346
RightLeg  37.3948 -7.55119 -6.4116
RightFoot  -10.4777 -0.275824 26.5816
RightToes  -5.28216e-011 1.2921e-014 -6.02303e-014
Spine  8.28966 0.452454 3.20507
Spine1  4.78505 0.982438 -2.09943
HEad  2.81622 13.0447 -4.41402
LeftShoulder1  1.98984 -4.71099 -18.5157
LeftArm  -5.18618 -6.2273 -58.518
LeftForeArm  24.6499 6.0379 -11.4256
LeftHand  -0.0442726 4.70846 3.80109
RightShoulder  2.09512 3.75006 23.5828
RightArm  -23.5707 15.1644 56.4165
RightForeArm  61.899 -5.5488 3.18345
RightHand  0.359502 -7.6611 -19.0493
LeftUpLeg  -35.7445 8.48543 2.32201
LeftLeg  35.1574 10.3508 8.10757
LeftFoot  -6.8369 0.0538322 -0.323449
LeftToes  9.43379e-011 5.24309e-011 -4.66411e-011
649
root  0.655964 38.0544 -40.1976 8.41502 1.11571 -4.09946
RightUpLeg  -15.8057 -8.26396 -10.7039
RightLeg  43.2691 -8.78495 -9.04143
RightFoot  -5.55002 -1.20757 22.8334
RightToes  -5.28216e-011 1.2921e-014 -6.02303e-014
Spine  8.48936 0.518048 3.13758
Spine1  4.44293 1.12086 -2.37556
HEad  3.59618 13.073 -4.00337
LeftShoulder1  1.89292 -4.42191 -18.1628
LeftArm  -5.60212 -5.8637 -58.8868
LeftForeArm  25.2412 7.20535 -11.2928
LeftHand  -0.0357672 4.98124 3.43706
RightShoulder  2.13497 3.86573 23.6669
RightArm  -24.8273 14.3574 56.6726
RightForeArm  62.3907 -5.42361 2.53894
RightHand  0.355814 -7.6768 -18.7594
LeftUpLeg  -33.963 7.58342 2.16561
LeftLeg  35.2003 10.575 8.28349
LeftFoot  -8.31521 0.0549185 -0.187296
LeftToes  9.43379e-011 5.24309e-011 -4.66411e-011
650
root  1.13818 38.2622 -39.382 7.87042 2.53447 -4.38412
RightUpLeg  -18.0108 -7.76828 -10.0183
RightLeg  48.9299 -10.1218 -12.5229
RightFoot  -0.578177 -1.06918 11.2735
RightToes  -5.28216e-011 1.2921e-014 -6.02303e-014
Spine  8.66767 0.368621 3.11887
Spine1  4.26622 0.899569 -1.95457
HEad  4.21168 12.9756 -3.96696
LeftShoulder1  1.91475 -4.48927 -18.237
LeftArm  -5.41733 -5.61012 -58.4777
LeftForeArm  25.5322 7.58813 -11.4022
LeftHand  -0.033447 5.0517 3.12925
RightShoulder  2.14159 3.85192 23.8253
RightArm  -25.604 13.7724 56.7877
RightForeArm  62.3422 -5.36125 2.15821
RightHand  0.352476 -7.68251 -18.5625
LeftUpLeg  -31.7439 6.99135 1.84571
LeftLeg  34.46 10.1609 7.77661
LeftFoot  -9.42109 0.0512931 0.317055
LeftToes  9.43379e-011 5.24309e-011 -4.66411e-011
